<svg width="64" height="64" viewBox="0 0 64 64" fill="none" xmlns="http://www.w3.org/2000/svg">
<g clip-path="url(#clip0_31_18)">
<g filter="url(#filter0_d_31_18)">
<path d="M50.566 7.66773H40.6038C40.1069 3.35847 36.4405 0 32 0C27.5597 0 23.8938 3.35834 23.3969 7.66773H13.4342C9.40259 7.66773 6.12305 10.9482 6.12305 14.9797V15.3548C6.12305 18.4356 8.04134 21.0726 10.7437 22.147V56.6881C10.7437 60.7197 14.0236 64 18.055 64H45.9453C49.9768 64 53.2565 60.7194 53.2565 56.6881V22.1471C55.9587 21.0726 57.8771 18.4356 57.8771 15.355V14.9798C57.8771 10.9482 54.5973 7.66773 50.566 7.66773ZM32 3.46765C34.5255 3.46765 36.6335 5.27783 37.1 7.66773H26.901C27.3673 5.27769 29.4755 3.46765 32 3.46765ZM49.7888 56.6881C49.7888 58.8077 48.0642 60.5325 45.9452 60.5325H18.0548C15.9358 60.5325 14.2112 58.8076 14.2112 56.6881V22.6668H49.7888V56.6881ZM54.4095 15.3548C54.4095 17.4745 52.6849 19.1992 50.5658 19.1992H13.4342C11.3152 19.1992 9.59057 17.4745 9.59057 15.3548V14.9797C9.59057 12.86 11.3152 11.1353 13.4342 11.1353H50.566C52.685 11.1353 54.4096 12.86 54.4096 14.9797L54.4095 15.3548Z" fill="#C80000" style="fill:#C80000;fill:color(display-p3 0.7843 0.0000 0.0000);fill-opacity:1;"/>
</g>
<path d="M22.7043 56.0979C23.6619 56.0979 24.4381 55.3214 24.4381 54.3643V34.8425C24.4381 33.8852 23.6618 33.1086 22.7043 33.1086C21.7469 33.1086 20.9706 33.8852 20.9706 34.8425V54.3643C20.9704 55.3217 21.7468 56.0979 22.7043 56.0979Z" fill="#C80000" style="fill:#C80000;fill:color(display-p3 0.7843 0.0000 0.0000);fill-opacity:1;"/>
<path d="M32 56.0979C32.9576 56.0979 33.7339 55.3214 33.7339 54.3643V34.8425C33.7339 33.8852 32.9573 33.1086 32 33.1086C31.0426 33.1086 30.2662 33.8852 30.2662 34.8425V54.3643C30.2662 55.3217 31.0424 56.0979 32 56.0979Z" fill="#C80000" style="fill:#C80000;fill:color(display-p3 0.7843 0.0000 0.0000);fill-opacity:1;"/>
<path d="M41.2957 56.0979C42.2531 56.0979 43.0293 55.3214 43.0293 54.3643V34.8425C43.0293 33.8852 42.253 33.1086 41.2957 33.1086C40.338 33.1086 39.5618 33.8852 39.5618 34.8425V54.3643C39.5616 55.3217 40.3382 56.0979 41.2957 56.0979Z" fill="#C80000" style="fill:#C80000;fill:color(display-p3 0.7843 0.0000 0.0000);fill-opacity:1;"/>
</g>
<defs>
<filter id="filter0_d_31_18" x="-1.87695" y="-4" width="67.754" height="80" filterUnits="userSpaceOnUse" color-interpolation-filters="sRGB">
<feFlood flood-opacity="0" result="BackgroundImageFix"/>
<feColorMatrix in="SourceAlpha" type="matrix" values="0 0 0 0 0 0 0 0 0 0 0 0 0 0 0 0 0 0 127 0" result="hardAlpha"/>
<feOffset dy="4"/>
<feGaussianBlur stdDeviation="4"/>
<feComposite in2="hardAlpha" operator="out"/>
<feColorMatrix type="matrix" values="0 0 0 0 0 0 0 0 0 0 0 0 0 0 0 0 0 0 0.25 0"/>
<feBlend mode="normal" in2="BackgroundImageFix" result="effect1_dropShadow_31_18"/>
<feBlend mode="normal" in="SourceGraphic" in2="effect1_dropShadow_31_18" result="shape"/>
</filter>
<clipPath id="clip0_31_18">
<rect width="64" height="64" fill="white" style="fill:white;fill-opacity:1;"/>
</clipPath>
</defs>
</svg>
