<svg width="64" height="64" viewBox="0 0 64 64" fill="none" xmlns="http://www.w3.org/2000/svg">
<g clip-path="url(#clip0_31_28)">
<path d="M39.5966 31.9993L63.367 8.23031C64.211 7.38624 64.211 6.02033 63.367 5.17653L58.8242 0.631979C58.4196 0.227651 57.8705 0 57.2974 0C56.7242 0 56.1751 0.227651 55.7705 0.631979L32.0001 24.4027L8.22958 0.631979C7.82498 0.227651 7.27592 0 6.70269 0C6.12961 0 5.58041 0.227651 5.17594 0.631979L0.633056 5.17653C-0.211018 6.02033 -0.211018 7.38624 0.633056 8.23031L24.4035 31.9994L0.635417 55.7656C-0.208241 56.6096 -0.208241 57.9755 0.635417 58.8193L5.17858 63.3639C5.58291 63.7682 6.13211 63.9959 6.70533 63.9959C7.27856 63.9959 7.82762 63.7682 8.23236 63.3639L31.9999 39.5959L55.7676 63.3639C56.1722 63.7682 56.7213 63.9959 57.2945 63.9959C57.8679 63.9959 58.4169 63.7682 58.8212 63.3639L63.3644 58.8193C64.2081 57.9755 64.2081 56.6096 63.3644 55.7656L39.5966 31.9993Z" fill="black" style="fill:black;fill-opacity:1;"/>
</g>
<defs>
<clipPath id="clip0_31_28">
<rect width="64" height="64" fill="white" style="fill:white;fill-opacity:1;"/>
</clipPath>
</defs>
</svg>
