<svg width="64" height="64" viewBox="0 0 64 64" fill="none" xmlns="http://www.w3.org/2000/svg">
<g clip-path="url(#clip0_31_43)">
<g filter="url(#filter0_d_31_43)">
<path d="M57.9994 15.858L42.5239 0.382624C42.2788 0.137625 41.9467 0 41.6003 0H11.9657C8.46549 0 5.618 2.84774 5.618 6.34799V57.6521C5.618 61.1523 8.46562 64 11.9659 64H52.0342C55.5344 64 58.382 61.1524 58.382 57.6521V16.7816C58.3819 16.4352 58.2443 16.103 57.9994 15.858ZM42.9068 4.45987L53.9226 15.4756H46.6424C45.6444 15.4756 44.7062 15.087 44.0007 14.3815C43.2953 13.6761 42.9067 12.738 42.9068 11.7401V4.45987ZM55.7696 57.652C55.7696 59.7119 54.0939 61.3876 52.0342 61.3876H11.9657C9.90586 61.3876 8.23012 59.7119 8.23012 57.652V6.34799C8.23024 4.28812 9.90599 2.61224 11.9657 2.61224H40.2946V11.7399C40.2943 13.4355 40.9546 15.0296 42.1534 16.2285C43.3524 17.4275 44.9465 18.0877 46.6423 18.0877H55.7695L55.7696 57.652Z" fill="black" style="fill:black;fill-opacity:1;"/>
</g>
<path d="M34.3864 43.9364H33.8017C33.0804 43.9364 32.4956 44.5212 32.4956 45.2425C32.4956 45.9639 33.0804 46.5486 33.8017 46.5486H34.3864C35.1077 46.5486 35.6926 45.9639 35.6926 45.2425C35.6926 44.5212 35.1077 43.9364 34.3864 43.9364Z" fill="black" style="fill:black;fill-opacity:1;"/>
<path d="M29.5762 43.9364H16.8897C16.1685 43.9364 15.5836 44.5212 15.5836 45.2425C15.5836 45.9639 16.1685 46.5486 16.8897 46.5486H29.5762C30.2974 46.5486 30.8823 45.9639 30.8823 45.2425C30.8823 44.5212 30.2976 43.9364 29.5762 43.9364Z" fill="black" style="fill:black;fill-opacity:1;"/>
<path d="M47.1102 37.9683H16.8898C16.1686 37.9683 15.5837 38.5531 15.5837 39.2744C15.5837 39.9958 16.1686 40.5806 16.8898 40.5806H47.1102C47.8314 40.5806 48.4163 39.9958 48.4163 39.2744C48.4163 38.5531 47.8314 37.9683 47.1102 37.9683Z" fill="black" style="fill:black;fill-opacity:1;"/>
<path d="M47.1102 31.9999H16.8898C16.1686 31.9999 15.5837 32.5847 15.5837 33.3061C15.5837 34.0274 16.1686 34.6122 16.8898 34.6122H47.1102C47.8314 34.6122 48.4163 34.0274 48.4163 33.3061C48.4163 32.5847 47.8314 31.9999 47.1102 31.9999Z" fill="black" style="fill:black;fill-opacity:1;"/>
<path d="M47.1102 26.0318H16.8898C16.1686 26.0318 15.5837 26.6165 15.5837 27.3379C15.5837 28.0593 16.1686 28.644 16.8898 28.644H47.1102C47.8314 28.644 48.4163 28.0593 48.4163 27.3379C48.4163 26.6165 47.8314 26.0318 47.1102 26.0318Z" fill="black" style="fill:black;fill-opacity:1;"/>
</g>
<defs>
<filter id="filter0_d_31_43" x="-2.382" y="-4" width="68.764" height="80" filterUnits="userSpaceOnUse" color-interpolation-filters="sRGB">
<feFlood flood-opacity="0" result="BackgroundImageFix"/>
<feColorMatrix in="SourceAlpha" type="matrix" values="0 0 0 0 0 0 0 0 0 0 0 0 0 0 0 0 0 0 127 0" result="hardAlpha"/>
<feOffset dy="4"/>
<feGaussianBlur stdDeviation="4"/>
<feComposite in2="hardAlpha" operator="out"/>
<feColorMatrix type="matrix" values="0 0 0 0 0 0 0 0 0 0 0 0 0 0 0 0 0 0 0.25 0"/>
<feBlend mode="normal" in2="BackgroundImageFix" result="effect1_dropShadow_31_43"/>
<feBlend mode="normal" in="SourceGraphic" in2="effect1_dropShadow_31_43" result="shape"/>
</filter>
<clipPath id="clip0_31_43">
<rect width="64" height="64" fill="white" style="fill:white;fill-opacity:1;"/>
</clipPath>
</defs>
</svg>
